Coordinates
version=1
nRows=12
nColumns=24
inDegrees=yes

Units are S.I. units (second, meters, Newtons, ...)
Angles are in degrees.

endheader
time	pelvis_tilt	pelvis_list	pelvis_rotation	pelvis_tx	pelvis_ty	pelvis_tz	hip_flexion_r	hip_adduction_r	hip_rotation_r	knee_angle_r	ankle_angle_r	subtalar_angle_r	mtp_angle_r	hip_flexion_l	hip_adduction_l	hip_rotation_l	knee_angle_l	ankle_angle_l	subtalar_angle_l	mtp_angle_l	lumbar_extension	lumbar_bending	lumbar_rotation
      4.30000000	     -1.25838677	      8.52383034	     -2.12777433	     -0.52152096	      0.93713093	      0.22274864	     22.02743845	     -7.62663133	      0.41721270	    -65.99425896	      6.69636615	    -16.91748874	      0.00000000	     12.95981244	     15.14217710	      2.84355543	    -19.15749511	     14.44042017	    -10.92214734	      0.00000000	     -9.54491712	    -11.52939904	     -6.49989563
      4.30500000	     -1.14915091	      8.27135073	     -1.99856696	     -0.51502206	      0.93853637	      0.22237885	     22.51488767	     -7.31982573	      0.37686387	    -65.20156413	      7.34122087	    -16.41959309	      0.00000000	     12.03392832	     14.99985746	      3.51243078	    -18.56856996	     14.27859819	    -11.46639893	      0.00000000	     -9.72922536	    -11.18031423	     -6.71964745
      4.31000000	     -1.05804118	      8.01651281	     -1.84769352	     -0.50850464	      0.93987875	      0.22196985	     22.98692853	     -7.02944844	      0.29801468	    -64.31967667	      7.91295473	    -15.93327399	      0.00000000	     11.12752471	     14.84261945	      4.14676873	    -17.97623212	     14.10128487	    -11.96724113	      0.00000000	     -9.88659404	    -10.82148756	     -6.92921992
      4.31500000	     -0.95836077	      7.76203024	     -1.69970699	     -0.50202622	      0.94116419	      0.22160028	     23.41352735	     -6.72537620	      0.23484707	    -63.33860322	      8.44090033	    -15.53524695	      0.00000000	     10.21937095	     14.67730135	      4.79940389	    -17.38495585	     13.87862034	    -12.53467858	      0.00000000	    -10.05906600	    -10.46974389	     -7.14678406
      4.32000000	     -0.86903254	      7.51380124	     -1.54039363	     -0.49553084	      0.94235429	      0.22121068	     23.81937929	     -6.43943483	      0.15012992	    -62.27632764	      8.91057299	    -15.18491518	      0.00000000	      9.32500778	     14.50993405	      5.43949662	    -16.79320123	     13.65364141	    -13.10126173	      0.00000000	    -10.21355335	    -10.12219803	     -7.36844261
      4.32500000	     -0.78544607	      7.27047164	     -1.37539112	     -0.48903966	      0.94345427	      0.22082505	     24.19895055	     -6.16030958	      0.06082848	    -61.12947674	      9.32441275	    -14.90203324	      0.00000000	      8.44151899	     14.33912110	      6.07970100	    -16.20293420	     13.41434480	    -13.68908343	      0.00000000	    -10.35998427	     -9.78007778	     -7.58942814
      4.33000000	     -0.70426018	      7.03543393	     -1.20657558	     -0.48254387	      0.94446291	      0.22043962	     24.54753922	     -5.89255085	     -0.03172928	    -59.89926183	      9.69475947	    -14.68079893	      0.00000000	      7.56557710	     14.17056965	      6.72142468	    -15.61428617	     13.15824418	    -14.31090358	      0.00000000	    -10.50021132	     -9.44575007	     -7.81453863
      4.33500000	     -0.63319704	      6.80760124	     -1.03058745	     -0.47604816	      0.94536833	      0.22006001	     24.87476647	     -5.63589065	     -0.12943072	    -58.58930623	     10.01505361	    -14.51892401	      0.00000000	      6.70860066	     14.00084291	      7.35584721	    -15.03468873	     12.90254797	    -14.93601759	      0.00000000	    -10.62581810	     -9.12150504	     -8.04222604
      4.34000000	     -0.56752150	      6.58782725	     -0.84808729	     -0.46955122	      0.94617481	      0.21967972	     25.17397914	     -5.39166061	     -0.22906935	    -57.19995035	     10.29785596	    -14.40506435	      0.00000000	      5.86654196	     13.83303699	      7.98924206	    -14.46623680	     12.64097578	    -15.57895750	      0.00000000	    -10.74407252	     -8.80685560	     -8.27430417
      4.34500000	     -0.49410073	      6.38664002	     -0.67155103	     -0.46305045	      0.94686553	      0.21929686	     25.43715728	     -5.17188021	     -0.32616616	    -55.74182231	     10.57476865	    -14.32507165	      0.00000000	      5.02588894	     13.68299280	      8.61365541	    -13.90635706	     12.37981920	    -16.28852045	      0.00000000	    -10.86755956	     -8.50759862	     -8.53209873
      4.35000000	     -0.45735692	      6.18206656	     -0.46844624	     -0.45655686	      0.94746454	      0.21894040	     25.69919173	     -4.95324877	     -0.43643121	    -54.19722538	     10.76495372	    -14.29041592	      0.00000000	      4.23977538	     13.51254530	      9.22005208	    -13.37656109	     12.14791139	    -16.88624503	      0.00000000	    -10.95007048	     -8.21598490	     -8.76385861
      4.35500000	     -0.40290510	      5.99614601	     -0.26809328	     -0.45005756	      0.94797316	      0.21857099	     25.91057425	     -4.76202624	     -0.54334199	    -52.58360068	     10.95738556	    -14.25834487	      0.00000000	      3.44243892	     13.36115787	      9.83487883	    -12.85678682	     11.91173206	    -17.55010458	      0.00000000	    -11.05301444	     -7.93974494	     -9.02559419
